
<svg width="75px" height="33px" viewBox="0 0 75 33" version="1.1" xmlns="http://www.w3.org/2000/svg" xmlns:xlink="http://www.w3.org/1999/xlink">
    <g id="Page-1" stroke="none" stroke-width="1" fill="none" fill-rule="evenodd">
        <g id="Splash" transform="translate(-150.000000, -390.000000)" fill="#FFFFFF" fill-rule="nonzero">
            <path d="M163.056723,406.529687 L163.736517,414.248291 L163.056723,422.358762 C163.021562,422.655632 162.798871,422.881252 162.541018,422.881252 C162.283165,422.881252 162.048754,422.655632 162.048754,422.358762 L161.392401,414.248291 L162.048754,406.529687 C162.048754,406.268442 162.271445,406.030946 162.541018,406.030946 C162.798871,406.030946 163.021562,406.268442 163.056723,406.529687 Z M165.564927,401.114789 C165.236751,401.114789 165.01406,401.376035 164.978898,401.708528 L164.392869,414.248291 L164.978898,422.358762 C165.01406,422.691256 165.236751,422.952501 165.564927,422.952501 C165.857941,422.952501 166.115794,422.691256 166.115794,422.358762 L166.795587,414.248291 L166.115794,401.708528 C166.115794,401.376035 165.857941,401.114789 165.564927,401.114789 Z M168.553674,398.252969 C168.190336,398.252969 167.932484,398.514214 167.897322,398.882332 L167.381616,414.319539 L167.897322,422.370637 C167.932484,422.738755 168.190336,423 168.553674,423 C168.88185,423 169.174865,422.738755 169.174865,422.370637 L169.796055,414.319539 L169.174865,398.882332 C169.174865,398.514214 168.88185,398.252969 168.553674,398.252969 Z M150.843882,409.724001 C150.679793,409.724001 150.586029,409.854624 150.550867,410.020871 L150,414.248291 L150.550867,418.404462 C150.586029,418.570709 150.679793,418.701331 150.843882,418.701331 C151.00797,418.701331 151.101734,418.570709 151.136896,418.404462 L151.793248,414.248291 L151.136896,410.020871 C151.101734,409.854624 151.00797,409.724001 150.843882,409.724001 Z M153.609938,407.123426 C153.44585,407.123426 153.316923,407.254048 153.316923,407.420295 L152.566806,414.248291 L153.316923,420.91004 C153.316923,421.111911 153.44585,421.242533 153.609938,421.242533 C153.774026,421.242533 153.902952,421.111911 153.938114,420.945664 L154.781996,414.248291 L153.938114,407.420295 C153.902952,407.254048 153.774026,407.123426 153.609938,407.123426 L153.609938,407.123426 Z M156.575244,405.769701 C156.375994,405.769701 156.211906,405.935948 156.188465,406.161569 L155.508671,414.248291 L156.188465,422.061893 C156.223627,422.263764 156.387715,422.430011 156.575244,422.430011 C156.774494,422.430011 156.938582,422.263764 156.938582,422.061893 L157.747302,414.248291 L156.938582,406.161569 C156.938582,405.935948 156.774494,405.769701 156.575244,405.769701 L156.575244,405.769701 Z M159.54055,405.508456 C159.317859,405.508456 159.118609,405.674703 159.118609,405.935948 L158.438816,414.248291 L159.118609,422.299388 C159.118609,422.560633 159.317859,422.72688 159.54055,422.72688 C159.763241,422.72688 159.962491,422.560633 159.997653,422.299388 L160.74777,414.248291 L159.997653,405.935948 C159.962491,405.674703 159.763241,405.508456 159.54055,405.508456 Z M187.834024,392.339331 C187.705098,392.244332 187.505848,392.173084 187.34176,392.173084 C187.083907,392.173084 186.849496,392.268082 186.685407,392.398705 C186.462716,392.600576 186.32207,392.897445 186.298628,393.194315 L186.298628,393.289313 L185.911849,414.27204 L186.111099,418.131342 L186.310349,421.895646 C186.345511,422.45376 186.802613,422.916877 187.35348,422.916877 C187.904348,422.916877 188.36145,422.45376 188.36145,421.895646 L188.818553,414.27204 L188.36145,393.194315 C188.314568,392.838071 188.127038,392.505578 187.834024,392.339331 L187.834024,392.339331 Z M184.70463,394.156171 C184.540542,394.061173 184.376454,393.989924 184.188924,393.989924 C184.001395,393.989924 183.825587,394.061173 183.673219,394.156171 C183.415366,394.322418 183.251278,394.619288 183.251278,394.951781 L183.216117,395.153652 L182.88794,414.248291 C182.88794,414.248291 182.88794,414.283915 183.251278,422.038143 L183.251278,422.073768 C183.251278,422.275639 183.321602,422.465635 183.450528,422.631882 C183.649778,422.857503 183.907631,423 184.200645,423 C184.458498,423 184.692909,422.869377 184.856997,422.703131 C185.056247,422.536884 185.150012,422.311263 185.150012,422.038143 L185.185174,421.242533 L185.548511,414.283915 L185.161732,394.951781 C185.126571,394.619288 184.962483,394.322418 184.70463,394.156171 L184.70463,394.156171 Z M171.647907,396.827996 C171.284569,396.827996 170.968113,397.160489 170.968113,397.552357 L170.452408,414.248291 L170.968113,422.22814 C171.003275,422.620007 171.296289,422.916877 171.647907,422.916877 C172.034686,422.916877 172.3277,422.620007 172.362862,422.22814 L172.948891,414.248291 L172.362862,397.552357 C172.339421,397.160489 172.046406,396.827996 171.647907,396.827996 Z M215.799322,404.285354 C214.533499,404.285354 213.32628,404.546599 212.212825,405.009716 C211.462708,396.602375 204.500685,390 196.003267,390 C193.917004,390 191.901064,390.391868 190.107816,391.116229 C189.392861,391.377474 189.193611,391.638719 189.193611,392.208708 L189.193611,421.860022 C189.193611,422.45376 189.650714,422.881252 190.201581,422.952501 L215.787601,422.952501 C220.862611,422.952501 224.999975,418.79633 224.999975,413.654552 C225.011696,408.47715 220.874332,404.285354 215.799322,404.285354 L215.799322,404.285354 Z M181.024369,397.124865 C180.532104,397.124865 180.145325,397.516733 180.110163,398.051098 L179.723384,414.283915 L180.110163,422.073768 C180.145325,422.572508 180.532104,422.964376 181.024369,422.964376 C181.516633,422.964376 181.903412,422.572508 181.903412,422.073768 L182.360514,414.283915 L181.903412,398.051098 C181.86825,397.516733 181.516633,397.124865 181.024369,397.124865 Z M174.742139,396.198633 C174.35536,396.198633 173.992022,396.566751 173.992022,396.994243 L173.53492,414.248291 L173.992022,422.192515 C174.027184,422.620007 174.35536,422.952501 174.742139,422.952501 C175.16408,422.952501 175.492256,422.620007 175.527418,422.192515 L176.043123,414.248291 L175.527418,396.994243 C175.492256,396.566751 175.16408,396.198633 174.742139,396.198633 L174.742139,396.198633 Z M177.871533,396.602375 C177.414431,396.602375 177.062813,396.970493 177.062813,397.421734 L176.605711,414.248291 L177.062813,422.133141 C177.097975,422.596258 177.426151,422.952501 177.871533,422.952501 C178.316915,422.952501 178.680253,422.584383 178.680253,422.133141 L179.172517,414.248291 L178.680253,397.421734 C178.680253,396.958618 178.328636,396.602375 177.871533,396.602375 L177.871533,396.602375 Z" id="soundcloud-copy"></path>
        </g>
    </g>
</svg>